<svg width="273" height="47" viewBox="0 0 273 47" fill="none" xmlns="http://www.w3.org/2000/svg">
<path d="M46.2129 0L41.8626 17.3961H16.1244L11.7791 0H0V0.711941L7.0704 28.9935H23.1948V46.3897H34.7922V28.9935H50.9167L57.9871 0.711941V0H46.2129Z" fill="#FEE6B4"/>
<path d="M201.178 0H166.385V11.5974H183.781V34.7922H154.783V23.1948H143.186V34.7922V40.5909V46.3897H189.58H195.379V11.5974H201.178V0Z" fill="#FEE6B4"/>
<path d="M272.77 11.5974V0H214.783V11.5974H237.978V34.7922H214.783V46.3897H272.77V34.7922H249.575V11.5974H272.77Z" fill="#FEE6B4"/>
<path d="M118.164 0H83.0134L71.5928 45.6777V46.3897H83.3669L87.2949 30.6777L116.288 40.3405L117.801 46.3897H129.575V45.6777L118.154 0H118.164ZM90.1182 19.3896L92.0675 11.5974H109.105L112.96 27.005L90.1182 19.3896Z" fill="#FEE6B4"/>
</svg>
